<?xml version="1.0" encoding="iso-8859-1"?>
<!-- Uploaded to: SVG Repo, www.svgrepo.com, Generator: SVG Repo Mixer Tools -->
<!DOCTYPE svg PUBLIC "-//W3C//DTD SVG 1.1//EN" "http://www.w3.org/Graphics/SVG/1.1/DTD/svg11.dtd">
<svg fill="#000000" version="1.1" id="Capa_1" xmlns="http://www.w3.org/2000/svg" xmlns:xlink="http://www.w3.org/1999/xlink" 
	 width="800px" height="800px" viewBox="0 0 494.453 494.453"
	 xml:space="preserve">
<g>
	<path d="M128.681,340.436c-0.805,0.125-1.612,0.188-2.406,0.188c-4.959,0-9.457-2.509-12.187-6.451
		c-13.278,3.764-23.255,15.408-24.506,29.559c4.662-2.36,14.175-4.436,33.708-4.436c19.534,0,29.047,2.075,33.709,4.436
		c-1.103-12.439-8.95-22.96-19.866-27.873C134.959,338.188,132.067,339.889,128.681,340.436z M108.544,348.997
		c0.989-0.823,2.045-1.569,3.163-2.221c1.015,0.714,2.079,1.345,3.186,1.9C112.663,348.75,110.556,348.856,108.544,348.997z"/>
	<path d="M416.347,14.148C415.564,6.213,408.845,0,400.708,0h-92.012c-8.66,0-15.716,7.053-15.716,15.718v25.614
		c0,8.664,7.056,15.717,15.716,15.717h30.289c0,0.076,0,10.344,0,10.344c-6.33,2.032-10.918,7.971-10.918,14.969v33.688
		c0,6.015,2.021,11.735,5.685,16.368c-0.823,5.068-2.556,9.601-5.145,13.52c-9.491,14.347-31.963,23.744-64.51,27.387
		c8.042-8.32,13.019-19.621,13.019-32.08c0-25.486-20.734-46.219-46.226-46.219c-25.486,0-46.224,20.733-46.224,46.219
		c0,13.573,5.918,25.764,15.27,34.226c-22.087,1.601-49.252,8.439-70.636,29.226c-25.803,25.087-35.872,63.098-29.984,113.083
		c-18.374,9.045-30.57,28.031-30.57,48.946v20.271c0,4.82,2.175,9.134,5.605,12.021v37.208c0,18.714,24.744,21.238,48.938,21.238
		c24.195,0,48.938-2.524,48.938-21.238v-37.208c0.646-0.54,1.247-1.133,1.801-1.773v67.108c0,16.598,13.504,30.1,30.097,30.1
		c11.901,0,22.206-6.939,27.087-16.987c4.885,10.048,15.189,16.987,27.09,16.987c16.598,0,30.1-13.502,30.1-30.1v-242.78
		c39.161-7.341,67.057-23.242,82.989-47.344c20.367-30.806,14.177-64.668,9.946-79.337V82.356c0-4.52-1.916-8.606-4.986-11.47
		l35.223-3.554c8.063-0.815,14.132-7.54,14.132-15.637V28.528C425.706,22.119,421.853,16.594,416.347,14.148z M195.417,141.249
		c0-19.588,15.88-35.465,35.474-35.465s35.475,15.876,35.475,35.465s-15.882,35.467-35.475,35.467S195.417,160.837,195.417,141.249z
		 M174.034,346.771c-4.37-11.045-12.289-20.52-22.683-26.777c-5.845-37.491-1.259-63.874,13.62-78.428
		c2.63-2.575,5.662-4.837,9.063-6.771V346.771z M414.955,51.699c0,2.554-1.927,4.688-4.462,4.942l-50.824,5.121v15.633h5.952
		c2.75,0,4.966,2.226,4.966,4.966v14.1c3.968,12.924,10.33,43.874-8.162,71.843c-15.449,23.365-43.891,38.143-84.773,44.169v118.381
		v33.545v99.96c0,10.687-8.667,19.354-19.349,19.354c-10.68,0-19.35-8.663-19.35-19.354v-99.955h-15.48v99.96
		c0,10.687-8.667,19.35-19.353,19.35c-10.688,0-19.346-8.657-19.346-19.35v-99.96V330.86V218.924
		c-9.688,2.638-19.416,7.218-27.329,14.953c-17.744,17.35-23.282,47.448-16.465,89.456c0.188,1.164,0.204,2.304,0.124,3.433
		c15.283,6.846,25.968,22.168,25.968,39.97v20.267c0,2.741-2.221,4.965-4.966,4.965h-0.64v44.259c0,2.6,0,10.5-38.188,10.5
		c-38.187,0-38.187-7.9-38.187-10.5v-44.259h-0.64c-2.746,0-4.966-2.224-4.966-4.965v-20.267c0-19.916,13.368-36.736,31.591-42.039
		c-7.56-50.525,1.047-88.317,25.703-112.287c29.707-28.876,72.896-27.62,89.802-25.803c1.461-0.478,3-0.807,4.619-0.807
		c54.901,0,91.679-11.735,106.352-33.929c5.012-7.585,6.965-15.793,7.406-23.34c-3.716-2.916-6.163-7.391-6.163-12.477V82.366
		c0-2.74,2.227-4.965,4.971-4.965h5.969V57.279c0-2.551,1.927-4.688,4.463-4.939l50.825-5.124v-3.567
		c-0.842,1.557-2.426,2.654-4.321,2.654h-92.007c-2.745,0-4.965-2.226-4.965-4.966v-25.62c0-2.741,2.22-4.966,4.965-4.966h92.007
		c2.745,0,4.971,2.226,4.971,4.966v10.498c0.83-1.559,2.42-2.656,4.315-2.656c2.751,0,4.966,2.226,4.966,4.968V51.699z"/>
</g>
</svg>